REM DIRINDEX 1\2,1\3,1\4,1\5
REM DIRNAME cjc005,folder01,folder02,folder03,folder04
TITLE ""
FILE "P1Q_t_0402-0411.mp3" MP3
  TRACK 01 AUDIO
    TITLE "3:cjc005_2108"
    INDEX 01 00:00:00
  TRACK 02 AUDIO
    TITLE "0:"
    INDEX 01 00:01:15
  TRACK 03 AUDIO
    TITLE "4:cjc005_2109"
    INDEX 01 00:01:40
  TRACK 04 AUDIO
    TITLE "0:"
    INDEX 01 00:02:57
  TRACK 05 AUDIO
    TITLE "5:cjc005_2110"
    INDEX 01 00:03:04
  TRACK 06 AUDIO
    TITLE "0:"
    INDEX 01 00:06:14
  TRACK 07 AUDIO
    TITLE "3:cjc005_2111"
    INDEX 01 00:06:69
  TRACK 08 AUDIO
    TITLE "0:"
    INDEX 01 00:08:34
  TRACK 09 AUDIO
    TITLE "4:cjc005_2112"
    INDEX 01 00:08:64
  TRACK 10 AUDIO
    TITLE "0:"
    INDEX 01 00:10:29
  TRACK 11 AUDIO
    TITLE "5:cjc005_2113"
    INDEX 01 00:10:61
  TRACK 12 AUDIO
    TITLE "0:"
    INDEX 01 00:15:15
  TRACK 13 AUDIO
    TITLE "3:cjc005_2114"
    INDEX 01 00:15:68
  TRACK 14 AUDIO
    TITLE "0:"
    INDEX 01 00:17:29
  TRACK 15 AUDIO
    TITLE "4:cjc005_2115"
    INDEX 01 00:17:63
  TRACK 16 AUDIO
    TITLE "0:"
    INDEX 01 00:19:30
  TRACK 17 AUDIO
    TITLE "5:cjc005_2116"
    INDEX 01 00:19:52
  TRACK 18 AUDIO
    TITLE "0:"
    INDEX 01 00:22:74
  TRACK 19 AUDIO
    TITLE "3:cjc005_2117"
    INDEX 01 00:23:50
  TRACK 20 AUDIO
    TITLE "0:"
    INDEX 01 00:24:63
  TRACK 21 AUDIO
    TITLE "4:cjc005_2118"
    INDEX 01 00:25:19
  TRACK 22 AUDIO
    TITLE "0:"
    INDEX 01 00:26:30
  TRACK 23 AUDIO
    TITLE "5:cjc005_2119"
    INDEX 01 00:26:52
  TRACK 24 AUDIO
    TITLE "0:"
    INDEX 01 00:31:12
  TRACK 25 AUDIO
    TITLE "3:cjc005_2120"
    INDEX 01 00:31:69
  TRACK 26 AUDIO
    TITLE "0:"
    INDEX 01 00:33:11
  TRACK 27 AUDIO
    TITLE "4:cjc005_2121"
    INDEX 01 00:33:42
  TRACK 28 AUDIO
    TITLE "0:"
    INDEX 01 00:34:63
  TRACK 29 AUDIO
    TITLE "5:cjc005_2122"
    INDEX 01 00:35:14
  TRACK 30 AUDIO
    TITLE "0:"
    INDEX 01 00:38:41
  TRACK 31 AUDIO
    TITLE "3:cjc005_2123"
    INDEX 01 00:39:25
  TRACK 32 AUDIO
    TITLE "0:"
    INDEX 01 00:40:44
  TRACK 33 AUDIO
    TITLE "4:cjc005_2124"
    INDEX 01 00:40:73
  TRACK 34 AUDIO
    TITLE "0:"
    INDEX 01 00:42:12
  TRACK 35 AUDIO
    TITLE "5:cjc005_2125"
    INDEX 01 00:42:37
  TRACK 36 AUDIO
    TITLE "0:"
    INDEX 01 00:46:39
  TRACK 37 AUDIO
    TITLE "3:cjc005_2126"
    INDEX 01 00:47:15
  TRACK 38 AUDIO
    TITLE "0:"
    INDEX 01 00:48:30
  TRACK 39 AUDIO
    TITLE "4:cjc005_2127"
    INDEX 01 00:48:51
  TRACK 40 AUDIO
    TITLE "0:"
    INDEX 01 00:50:01
  TRACK 41 AUDIO
    TITLE "5:cjc005_2128"
    INDEX 01 00:50:29
  TRACK 42 AUDIO
    TITLE "0:"
    INDEX 01 00:54:50
  TRACK 43 AUDIO
    TITLE "3:cjc005_2129"
    INDEX 01 00:55:24
  TRACK 44 AUDIO
    TITLE "0:"
    INDEX 01 00:56:45
  TRACK 45 AUDIO
    TITLE "4:cjc005_2130"
    INDEX 01 00:56:74
  TRACK 46 AUDIO
    TITLE "0:"
    INDEX 01 00:58:22
  TRACK 47 AUDIO
    TITLE "5:cjc005_2131"
    INDEX 01 00:58:44
  TRACK 48 AUDIO
    TITLE "0:"
    INDEX 01 01:03:29
  TRACK 49 AUDIO
    TITLE "3:cjc005_2132"
    INDEX 01 01:04:03
  TRACK 50 AUDIO
    TITLE "0:"
    INDEX 01 01:05:11
  TRACK 51 AUDIO
    TITLE "4:cjc005_2133"
    INDEX 01 01:05:40
  TRACK 52 AUDIO
    TITLE "0:"
    INDEX 01 01:07:00
  TRACK 53 AUDIO
    TITLE "5:cjc005_2134"
    INDEX 01 01:07:23
  TRACK 54 AUDIO
    TITLE "0:"
    INDEX 01 01:12:03
  TRACK 55 AUDIO
    TITLE "3:cjc005_2135"
    INDEX 01 01:12:54
  TRACK 56 AUDIO
    TITLE "0:"
    INDEX 01 01:13:69
  TRACK 57 AUDIO
    TITLE "4:cjc005_2136"
    INDEX 01 01:14:19
  TRACK 58 AUDIO
    TITLE "0:"
    INDEX 01 01:15:44
  TRACK 59 AUDIO
    TITLE "5:cjc005_2137"
    INDEX 01 01:15:68
  TRACK 60 AUDIO
    TITLE "0:"
    INDEX 01 01:19:60
